# Made in Blockbench 4.10.1
mtllib rocket_engine.mtl

o engine
v 1 1 1
v 1 1 0
v 0 1 0
v 0 1 1
v 0 0.6875 1
v 0 1 1
v 0 1 0
v 0 0.6875 0
v 1 0.6875 0
v 1 0.6875 1
v 1 1 0
v 1 1 1
v 0.8125 0.5625 0.1875
v 0.8125 0.6875 0.1875
v 0.8125 0.6875 0.8125
v 0.8125 0.5625 0.8125
v 0.1875 0.5625 0.8125
v 0.1875 0.6875 0.8125
v 0.1875 0.6875 0.1875
v 0.1875 0.5625 0.1875
v 0.576942 0.594953 0.422477
v 0.9375 0 0.0625
v 0.0625 0 0.0625
v 0.42328699999999997 0.596575 0.42328699999999997
v 0.0625 0 0.9375
v 0.9375 0 0.9375
v 0.577585 0.59483 0.577585
v 0.423141 0.596281 0.576859
v 0.6394420000000001 0.719953 0.359977
v 1 0 0
v 0 0 0
v 0.36078699999999997 0.721575 0.36078699999999997
v 0 0 1
v 1 0 1
v 0.640085 0.71983 0.640085
v 0.360641 0.721281 0.639359
vt 0.5 0.5
vt 0.5 1
vt 0 1
vt 0 0.5
vt 0.5 0.84375
vt 0.5 1
vt 0 1
vt 0 0.84375
vt 0.5 0.5
vt 0.5 1
vt 0 1
vt 0 0.5
vt 0.5 0.84375
vt 0.5 1
vt 0 1
vt 0 0.84375
vt 0.5 0.84375
vt 0.5 1
vt 0 1
vt 0 0.84375
vt 0.5 0.84375
vt 0.5 1
vt 0 1
vt 0 0.84375
vt 0.40625 0.78125
vt 0.40625 0.84375
vt 0.09375 0.84375
vt 0.09375 0.78125
vt 0.40625 0.78125
vt 0.40625 0.84375
vt 0.09375 0.84375
vt 0.09375 0.78125
vt 0.40625 0.59375
vt 0.40625 0.90625
vt 0.09375 0.90625
vt 0.09375 0.59375
vt 0.40625 0.78125
vt 0.40625 0.84375
vt 0.09375 0.84375
vt 0.09375 0.78125
vt 0.40625 0.78125
vt 0.40625 0.84375
vt 0.09375 0.84375
vt 0.09375 0.78125
vt 0.46875 0
vt 0.03125 0
vt 0.21152812500000007 0.342846875
vt 0.2883562500000001 0.34375
vt 0.28879375 0.342940625
vt 0.46875 0
vt 0.03125 0
vt 0.211571875 0.34375
vt 0.28842812500000004 0.34358749999999993
vt 0.46875 0
vt 0.03125 0
vt 0.2116437499999999 0.34375
vt 0.28876250000000003 0.34375
vt 0.46875 0
vt 0.03125 0
vt 0.21120625000000004 0.34353125000000007
vt 0.18027812500000007 0.40534375
vt 0 0
vt 0.5 0
vt 0.31960625 0.40625
vt 0 0
vt 0.5 0
vt 0.32004374999999996 0.4054375
vt 0.18032187499999996 0.40625
vt 0 0
vt 0.5 0
vt 0.319678125 0.40608749999999993
vt 0.18039375000000002 0.40625
vt 0 0
vt 0.5 0
vt 0.32001250000000003 0.40625
vt 0.17995625000000004 0.4060531249999999
vt 0.46875 0.03125
vt 0.03125 0.03125
vt 0 0
vt 0.5000000000000001 0
vt 0.03125 0.03125
vt 0 0
vt 0.5 0
vt 0.46875 0.03125
vt 0.03125 0.03125
vt 0 0
vt 0.5 0
vt 0.46875 0.03125
vt 0.03125 0.03125000000000011
vt 0 2.220446049250313e-16
vt 0.5 0
vt 0.46875 0.03125
vn 0 1 0
vn -1 0 0
vn 0 -1 0
vn 0 0 -1
vn 0 0 1
vn 1 0 0
vn 1 0 0
vn -1 0 0
vn 0 -1 0
vn 0 0 1
vn 0 0 -1
vn 0 -0.5176699208520529 0.8555804188064552
vn 0 -0.5176829991249582 -0.8555725056457744
vn 0.8556690743841695 -0.5175233667599358 0
vn -0.8552103039376243 -0.5182811361017459 0
vn 0 0.4472140924361848 -0.8944269425316299
vn 0 0.44721359549995804 0.8944271909999161
vn -0.8944269429891021 0.44721409152124175 0
vn 0.8941381292553762 0.4477912524957322 0
vn 0 -1 0
vn 0 -1 0
vn 0 -1 0
vn 0 -1 0
usemtl m_8f78cb5a-53d0-bbe7-57b9-19c4dc529fee
f 1/1/1 2/2/1 3/3/1 4/4/1
f 5/5/2 6/6/2 7/7/2 8/8/2
f 9/9/3 10/10/3 5/11/3 8/12/3
f 8/13/4 7/14/4 11/15/4 9/16/4
f 10/17/5 12/18/5 6/19/5 5/20/5
f 9/21/6 11/22/6 12/23/6 10/24/6
f 13/25/7 14/26/7 15/27/7 16/28/7
f 17/29/8 18/30/8 19/31/8 20/32/8
f 13/33/9 16/34/9 17/35/9 20/36/9
f 16/37/10 15/38/10 18/39/10 17/40/10
f 20/41/11 19/42/11 14/43/11 13/44/11
f 23/45/12 22/46/12 21/47/12 24/48/12
f 27/49/13 26/50/13 25/51/13 28/52/13
f 28/53/14 25/54/14 23/55/14 24/56/14
f 21/57/15 22/58/15 26/59/15 27/60/15
f 29/61/16 30/62/16 31/63/16 32/64/16
f 33/65/17 34/66/17 35/67/17 36/68/17
f 31/69/18 33/70/18 36/71/18 32/72/18
f 34/73/19 30/74/19 29/75/19 35/76/19
f 26/77/20 22/78/20 30/79/20 34/80/20
f 26/81/21 34/82/21 33/83/21 25/84/21
f 23/85/22 31/86/22 30/87/22 22/88/22
f 25/89/23 33/90/23 31/91/23 23/92/23